<?xml version="1.0" encoding="UTF-8"?>
<svg id="Capa_2" data-name="Capa 2" xmlns="http://www.w3.org/2000/svg" viewBox="0 0 207.13 99.21">
  <defs>
    <style>
      .cls-1 {
        fill: #fff;
        stroke-width: 0px;
      }
    </style>
  </defs>
  <g id="Capa_1-2" data-name="Capa 1">
    <path class="cls-1" d="m49.36,10.58h0c-.41,0-.74-.33-.74-.74s.33-.74.74-.74h3.98c.41,0,.74.33.74.74v7.18c0,.41-.33.74-.74.74h-2.51c-.41,0-.74-.33-.74-.74v-5.7c0-.41-.33-.74-.74-.74"/>
    <path class="cls-1" d="m47.15,6.19v3.65c0,.41.33.74.74.74s.74.33.74.74-.33.74-.74.74-.74.33-.74.74v4.23c0,.41-.33.74-.74.74h-2.5c-.41,0-.74-.33-.74-.74V6.19c0-.41-.33-.74-.74-.74h-3.11c-.41,0-.74.33-.74.74v50.9c0,.41-.33.74-.74.74h-2.51c-.41,0-.74-.33-.74-.74V6.19c0-.41-.33-.74-.74-.74h-1.61c-.41,0-.74-.33-.74-.74v-.28c0-.41.33-.74.74-.74h10.17c.41,0,.74-.33.74-.74V.74c0-.41.33-.74.74-.74h2.5c.41,0,.74.33.74.74v2.22c0,.41.33.74.74.74h17.95c.41,0,.74.33.74.74v.28c0,.41-.33.74-.74.74h-17.95c-.41,0-.74.33-.74.74"/>
    <path class="cls-1" d="m61.12,14.91h0c0,.41.33.74.74.74h.35c.41,0,.74.33.74.74v.64c0,.41-.33.74-.74.74h-5.81c-.41,0-.74-.33-.74-.74v-7.18c0-.41.33-.74.74-.74h9.44c.41,0,.74.33.74.74v3.59c0,.41-.33.74-.74.74h-3.98c-.41,0-.74-.33-.74-.74s.33-.74.74-.74.74-.33.74-.74v-.64c0-.41-.33-.74-.74-.74h-1.48c-.41,0-.74.33-.74.74v2.11c0,.41.33.74.74.74s.74.33.74.74"/>
    <path class="cls-1" d="m102.64,19.22L31.98,42.7c-1.66.55-1.29,2.99.45,3.03l66.29,1.68c.91.02,1.61.82,1.51,1.73l-.65,5.81c-.06.55-.41,1.02-.91,1.25l-3.48,1.57L4.53,98.63h0l-2.65.54c-1.79.37-2.64-2.11-1.01-2.92l75.24-37.55c1.4-.7,1.02-2.78-.54-2.94l-63.31-6.51-.48-.05c-1.6-.16-1.93-2.34-.46-2.98l2.21-.96L102.62,6.52c1.1-.48,2.3.41,2.17,1.6l-1.09,9.79c-.07.6-.48,1.11-1.06,1.31"/>
    <path class="cls-1" d="m173.41,24.98l33.15,27.73c1.18.99.37,2.9-1.16,2.75l-11.1-1.14c-.36-.04-.7-.2-.95-.45l-26.79-27.13c-.46-.46-1.15-.59-1.75-.33l-25.85,11.65c-1.1.5-2.32-.39-2.19-1.59l.85-7.67c.06-.53.38-.99.85-1.22l17.45-8.71c.95-.47,1.16-1.73.41-2.49l-8.17-8.27c-.97-.98-.27-2.65,1.11-2.65h.22c.37,0,.72.13,1,.36l11.79,9.87h0l20.17-10.06c.22-.11.45-.16.69-.16h20.88c1.68,0,2.17,2.29.64,2.98l-30.92,13.93c-1.05.47-1.24,1.88-.36,2.61"/>
    <path class="cls-1" d="m130.99,5.45c1.02,0,1.76.96,1.51,1.94l-6.75,26.53-2.89,11.38h0l-7.55,29.72c-.15.58-.61,1.02-1.2,1.14l-10.15,2.08c-1.19.24-2.18-.9-1.78-2.04l9.02-25.64,4-11.37,11.51-32.7c.22-.62.81-1.04,1.47-1.04h2.81Z"/>
  </g>
</svg>