<?xml version="1.0" encoding="UTF-8"?>
<svg id="Capa_2" data-name="Capa 2" xmlns="http://www.w3.org/2000/svg" viewBox="0 0 208.34 197.82">
  <defs>
    <style>
      .cls-1 {
        fill: red;
      }

      .cls-1, .cls-2, .cls-3 {
        stroke-width: 0px;
      }

      .cls-2 {
        fill: none;
      }

      .cls-3 {
        fill: #fff;
      }
    </style>
  </defs>
  <g id="Capa_1-2" data-name="Capa 1">
    <path class="cls-3" d="m118.69,189.13h0c-.21.2-.73.39-1.32.53-1.31.31-3.02.42-2.77.02.18-.27.91-.5,1.59-.5s1.46-.23,1.78-.55c.27-.27.68-.41.86-.23.18.18.09.5-.14.73"/>
    <path class="cls-3" d="m133.08,186.76c0,.23-1.05.68-2.32.96-3.1.73-3,.77-3.28-.91-.14-.82-.41-2.23-.55-3.1l-.32-1.59.86,1.05c.73.91,1.05,1,2.1.59.77-.32,1.23-.32,1.23-.05s-.36.45-.87.45c-.56,0-1.07.28-1.4.7-.21.26-.35.58-.4.91-.02.17-.01.35.02.53.18.87,1,.96,3.46.41.82-.18,1.46-.18,1.46.05"/>
    <path class="cls-3" d="m111.5,167.73c-.37.32-.55.96-.41,1.5.23.82.18.86-.73.41-.73-.41-1.18-.41-1.91,0-.91.45-.96.41-.73-.41.13-.52-.03-1.13-.37-1.46-.01-.01-.03-.03-.04-.04-.3-.24-.49-.47-.56-.66-.15-.4.14-.66.84-.66.46,0,1.05-.36,1.32-.77.41-.77.46-.77,1.27,0,.5.41,1.14.77,1.41.77.73,0,.68.68-.09,1.32"/>
    <path class="cls-3" d="m204.62,126.79c-1.91,6.19-4.1,11.93-4.92,12.84-.41.46-.59.82-.41.82.27,0-2.14,4.83-4.87,9.61-6.88,11.98-18.85,24.32-31.29,32.2-5.06,3.19-16.53,8.79-21.18,10.29-6.47,2.09-14.57,3.92-20.54,4.6-21.31,2.5-43.04-2.05-61.53-12.8-4.28-2.46-5.51-3.33-11.75-7.97-3.46-2.55-12.98-12.07-12.98-12.98,0-.36-.27-.77-.64-.91-.82-.32-4.42-4.55-4.55-5.33-.04-.32-.55-1.05-1.09-1.59-1.23-1.23-1.32-2.37-.18-2.37.55,0,1.82,1.32,3.37,3.55,3.19,4.42,10.38,12.11,15.16,16.17,2,1.73,6.1,4.74,9.11,6.69,3.01,1.96,5.88,3.92,6.38,4.37.45.45,1.18.86,1.59.91.37.04,2.96,1.09,5.69,2.32,2.78,1.28,6.47,2.73,8.2,3.33,1.78.55,3.42,1.18,3.64,1.37.27.18,1.18.46,2.05.59.86.18,3.32.68,5.46,1.23,4.28,1,16.21,2.46,19.81,2.41,4.51-.09,14.57-1.09,18.85-1.96,2.41-.46,7.06-1.69,10.29-2.64,5.42-1.69,7.7-2.55,13.43-5.24,1.14-.5,2.23-.91,2.46-.87.23.09.82-.23,1.37-.73.5-.46,2.92-2.05,5.28-3.51,20.36-12.57,35.25-32.33,42.26-56.01.91-3.1,1.59-4.6,2.1-4.69,1.05-.23.91,1.28-.59,6.28"/>
    <path class="cls-3" d="m142.23,182.76c-.41-1-.46-1-.46-.14-.05.5.09,1.09.27,1.23.55.55.64,0,.18-1.09"/>
    <path class="cls-3" d="m138.09,183.26c-.73-1.41-1.05-.86-.41.73.27.73.59,1.09.73.77.09-.32-.05-1-.32-1.5"/>
    <path class="cls-3" d="m137.04,181.12c-.18-.14-.32,0-.32.32s.14.45.32.32c.14-.18.14-.46,0-.64"/>
    <path class="cls-3" d="m130.49,180.25c-.46.14-1.59.36-2.51.55-.96.14-1.59.5-1.46.73.14.23.59.27,1.05.14.41-.18,1.41-.41,2.23-.55.77-.14,1.46-.45,1.46-.68s-.36-.32-.77-.18"/>
    <path class="cls-3" d="m103.48,185.99c-.41,0-1.14-.41-1.55-.86-.78-.87-.78-.91.18-1.41.55-.32,1.59-.45,2.32-.36.73.14,1.32.05,1.32-.14s-.68-.41-1.46-.55c-1.09-.14-1.78.05-2.46.68-1.37,1.23-.91,2.37,1.32,3.37,1.05.5,1.87,1.14,1.82,1.46-.09.32.09.55.32.55.27,0,.45-.23.45-.55,0-.82-1.41-2.19-2.28-2.19"/>
    <path class="cls-3" d="m104.16,189.63c-.14-.23-1-.45-1.87-.45s-1.55.23-1.55.45c0,.27.82.46,1.87.46s1.73-.18,1.55-.46"/>
    <path class="cls-3" d="m80.39,177.38c-1.32-.5-2.41-.73-2.41-.5,0,.27.18.45.36.45.23,0,.73.27,1.18.59.78.55.73.68-.14,2.96-1.09,2.73-1.28,4.78-.27,2.6.37-.73.96-2.14,1.32-3.1.64-1.55.82-1.68,1.96-1.41,2,.46.73-.5-2-1.59"/>
    <path class="cls-3" d="m83.03,185.08c-.27.36-.32.82-.23,1,.41.64.64.41.64-.64,0-.82-.09-.91-.41-.36"/>
    <path class="cls-3" d="m123.91,182.25c-1.12.36-1.2.57-.94,2.23.19,1,.42,2.52.49,3.33.28,2.39-.63.54-1.12-2.36-.31-1.67-.42-2.24-.79-2.46-.56.05-1.28.07-2.23.09-.42,0-.81.02-1.17.03-.66.03-1.21.07-1.65.15-.78.12-1.24.3-1.51.6-.64.64-.64.87-.14,1.46.36.45,1,.64,1.55.5.55-.14,1.32.05,1.78.41.44.28.6.63.44.8-.02.03-.05.05-.08.06-.14.11-.32.12-.47.05-.11-.05-.2-.13-.25-.24-.18-.27-.68-.37-1.14-.23-1.82.59-3.6-1.37-2.73-2.96.45-.87,1.64-1.14,6.69-1.55.68-.05,1.36-.13,1.88-.22,2.61-1.04,3.25-.32,1.39.31"/>
    <path class="cls-3" d="m193.6,125.69c-3.51,10.98-9.38,21.54-17.17,30.74-3.46,4.1-10.89,11.11-12.39,11.7-.37.14-1.32.91-2.14,1.64-.77.77-2.41,1.91-3.64,2.55-1.18.64-2.78,1.59-3.51,2.19-.68.55-2.19,1.41-3.23,1.91-1.09.5-2.23.91-2.46.91-1.18,0-.32-.96,2.14-2.32,10.88-6.19,22.22-16.17,28.55-25.23,1-1.41,2.19-2.91,2.64-3.32.41-.41.77-.91.77-1.14s1.09-2.37,2.46-4.83c3.23-5.78,8.47-19.13,8.47-21.68,0-.36.32-.68.68-.68,1.05,0,.87,1.18-1.18,7.56"/>
    <path class="cls-3" d="m69.78,176.2c0,.36-.27.68-.59.68-.82,0-9.84-5.56-11.25-6.92-.64-.59-2.14-1.78-3.37-2.64-3.1-2.09-12.11-11.34-12.11-12.39,0-.46-.45-1-1.05-1.23-1.09-.41-3.51-3.55-3.51-4.51,0-.32.32-.55.68-.55s.68.32.68.68c0,.32.27.82.59,1,.32.18,1.82,1.91,3.37,3.78,3.01,3.69,8.47,9.11,12.34,12.25,3,2.41,10.38,7.38,12.57,8.43.91.41,1.64,1.05,1.64,1.41"/>
    <path class="cls-3" d="m182.08,128.06c-1.78,4.65-4.65,10.11-5.6,10.7-.32.18-.59.64-.59,1,0,1.68-8.65,12.75-10.57,13.52-.46.18-.82.59-.82.91,0,.77-6.19,6.06-10.89,9.24-1.96,1.37-5.78,3.6-8.52,4.96-5.05,2.55-13.25,5.56-13.71,5.1-.18-.14-.55-.05-.82.18-.91.73-5.51,1.82-10.7,2.51-6.78.96-18.22.73-19.49-.32-.41-.36-.73-.36-1.05-.05-.86.87-12.16-2-19.54-4.92-4.51-1.78-11.8-5.83-12.34-6.88-.23-.46-.86-.82-1.32-.82-.5,0-.91-.23-.91-.5,0-.23-.64-.68-1.37-.96-.86-.27-1.32-.73-1.28-1.14.09-.46-.41-.91-1.28-1.23-1.73-.59-8.38-6.51-8.38-7.42,0-.32-.27-.73-.64-.87-1.14-.45-5.24-5.65-4.96-6.33.41-1.18,1.37-.73,3.1,1.5.96,1.18,2.46,2.87,3.32,3.78.96,1.09,1.37,1.78,1.05,2-.73.41-.18,1.14.64.87.36-.14,1.32.41,2.23,1.32,2.64,2.69,11.07,8.74,15.48,11.2,7.51,4.14,15.94,7.1,24.41,8.56,6.1,1.05,18.81,1,24.82-.05,5.15-.96,5.24-.96,6.15-1.27.36-.14,2.41-.82,4.55-1.5,7.74-2.46,14.16-5.74,21.27-10.79,3.87-2.73,12.48-10.97,15.48-14.76,1.59-2.09,6.51-9.61,6.51-10.02,0-.14.36-.82.82-1.46,1.32-1.91,4.65-10.34,5.97-15.12.82-3.01,1.41-4.33,1.87-4.33,1.46,0,.41,4.83-2.91,13.34"/>
    <path class="cls-3" d="m17.41,129.06c0,.23-.41.46-.87.46-1.05,0-1.87-2.37-3.51-10.47-1.37-6.65-1.41-8.2-.18-8.2.64,0,.91.32.91,1.05,0,1.46,1.64,9.56,2.73,13.39.5,1.82.91,3.51.91,3.78"/>
    <path class="cls-3" d="m26.7,124.01c0,.36-.18.73-.5.82-.32.14-.73-.59-1.05-1.78-.27-1.09-.59-2.28-.73-2.64-.82-2.32-1.55-7.92-1.14-8.33.27-.27.55-.41.64-.27.18.18,2.69,11.2,2.78,12.2"/>
    <path class="cls-3" d="m36.54,119.91c0,1-.41,1.37-1.23,1.09-1-.36-.68-1.96.32-1.96.59,0,.91.32.91.86"/>
    <path class="cls-3" d="m207.68,93c-.91.18-1.09-.45-1.5-4.92-.14-1.64-.87-6.01-1.64-9.75-1.27-6.47-1.27-8.15-.05-7.38.91.55,3.51,13.89,3.83,19.4.09,2.05,0,2.5-.64,2.64"/>
    <path class="cls-3" d="m196.2,85.8c-.36,0-.82-.45-.91-1-.14-.59-.55-2.78-.96-4.87-.36-2.09-.82-4.01-.96-4.19-.14-.23.14-.41.64-.41.82,0,1.41,1.96,2.64,8.79.23,1.37.14,1.68-.46,1.68"/>
    <path class="cls-3" d="m192.1,45.86c-.64.27-2.23-1.46-3.42-3.69-1.46-2.78-10.34-12.43-15.71-17.08-7.42-6.47-20.72-14.44-28.96-17.4C114.68-2.91,82.58.55,57.21,17.13c-11.16,7.29-22.41,18.63-29.19,29.42-2.82,4.55-9.15,17.17-9.52,19.08-.41,2.05-1.73,5.1-2.32,5.33-.55.23-.59.41-.14.96.46.59.46.86-.18,1.5-.41.46-.59.96-.46,1.14.32.32-.64,5.92-1.32,7.6-.27.64-.41,1.41-.37,1.73.09.64-1.14.77-1.5.14-.32-.5,1.18-8.2,2.41-12.34,2.23-7.56,6.42-17.62,7.6-18.35.37-.18.64-.64.64-.96,0-.82,2.64-5.87,3.28-6.28.32-.14.59-.59.64-.96.05-.32.86-1.73,1.82-3.1C42.73,22.05,63.77,7.75,87.31,2.24,95.51.32,99.11-.04,110.08,0c10.84,0,17.4.77,23.91,2.69,8.84,2.69,11.98,3.73,14.8,5.01,1.78.82,4.33,1.96,5.69,2.59,3.6,1.59,10.43,5.92,15.48,9.79,7.74,5.88,14.57,12.89,19.85,20.4,3.05,4.28,3.32,4.96,2.28,5.37"/>
    <path class="cls-3" d="m28.07,70c-.41,1.05-1.28,4.14-2,6.92-.68,2.73-1.5,5.06-1.78,5.15-.55.18-.64-.09-.55-1.5.14-1.73,1.5-6.83,1.96-7.42.27-.32.55-.91.59-1.37.18-1.68.82-3.78,1.18-4.01,1-.59,1.23.41.59,2.23"/>
    <path class="cls-3" d="m170.42,49.87c0,1.55-2.14.96-2.78-.73-.27-.73-9.61-9.43-11.43-10.7-.96-.59-1.78-1.5-1.91-1.96-.14-.5-.41-.73-.73-.55-.27.18-1.14-.18-1.96-.82-.82-.59-3.1-1.96-5.1-3.05-2-1.09-4.1-2.37-4.65-2.87-.55-.46-1.18-.73-1.46-.55-.27.14-.77.14-1.05-.09-.32-.18-1.32-.64-2.19-.96-10.43-3.82-16.39-4.87-28.01-4.83-7.1,0-9.52.23-13.43,1.05-15.07,3.14-27.14,9.29-37.21,18.85-1.55,1.5-2.6,2.19-3.05,2-1.18-.46-.86-1.09,1.91-3.87,5.15-5.01,14.03-10.61,23.32-14.57,2.78-1.18,9.7-3.32,9.93-3.05.14.14.46.04.73-.18,1.78-1.46,21.77-3.1,23.22-1.91.32.27.77.27,1.18.04.73-.46,4.51-.09,5.28.55.27.18.82.27,1.23.09,1.68-.64,18.9,4.69,20.86,6.42.37.36,1,.68,1.37.68.82,0,6.56,3.37,7.97,4.6.5.5,1.05.87,1.23.87s1.91,1.18,3.87,2.6c4.28,3.14,12.84,11.75,12.84,12.93"/>
    <path class="cls-3" d="m179.39,45.86c-.73.27-1.69-.5-1.69-1.32,0-.32-.46-.91-1-1.27-.55-.36-2.23-2.1-3.73-3.82-7.1-8.01-20.22-17.03-30.56-21.09-2.14-.82-3.87-1.78-3.87-2.1s.23-.59.5-.59c1.78,0,15.03,6.33,16.26,7.74.41.5,1.05.91,1.37.91.68,0,6.51,3.92,8.29,5.6.64.59,2.6,2.32,4.37,3.82,2.82,2.41,10.2,10.48,10.57,11.48.09.23-.18.5-.5.64"/>
    <path class="cls-3" d="m78.11,17.95c-1.91.64-14.21,6.83-15.21,7.7-2.37,2-8.2,5.97-8.79,5.97-.41,0-.91.46-1.14,1.05-.23.55-2,2.55-3.96,4.46-2,1.87-4.37,4.37-5.33,5.56-.96,1.18-1.91,2.14-2.14,2.14-1.09,0-.87-1.14.5-2.64,7.29-7.97,12.2-12.39,18.85-16.85,4.01-2.69,14.3-8.06,14.71-7.65.14.18.55,0,.96-.36.41-.36,1.28-.82,2-.96,2-.5,1.59.96-.45,1.59"/>
    <path class="cls-3" d="m124.56,31.84c-.55.36-1.05,1.14-1.14,1.73-.09.73-.23.87-.55.36-.23-.36-.86-.5-1.64-.32-1.09.18-1.23.09-1.05-.59.14-.5,0-1.27-.27-1.82-.46-.87-.41-.96.59-.96.64,0,1.32-.32,1.55-.73.32-.59.5-.55,1.18.46.41.64,1.09,1.18,1.5,1.18.64,0,.64.14-.18.68"/>
    <path class="cls-3" d="m111.5,30.65c-.37.32-.55.96-.41,1.5.23.82.18.87-.73.41-.68-.37-1.23-.41-1.87-.05-.77.41-.91.36-.91-.5,0-.55-.32-1.41-.77-1.87-.68-.77-.68-.82.23-.82.5,0,1.28-.45,1.64-1l.73-1,.73,1c.36.55,1,1,1.37,1,.82,0,.82.64,0,1.32"/>
    <path class="cls-3" d="m104.39,7.02c-.23,0-.45.41-.45.91s.23.91.45.91c.27,0,.46-.41.46-.91s-.18-.91-.46-.91"/>
    <path class="cls-3" d="m102.66,13.21c-.27-.14-.68.05-1,.41-.82,1-2.1.82-2.92-.32-.5-.73-.73-.82-.73-.32,0,.37.23.91.55,1.23.73.73,3.32.68,3.96-.09.32-.36.36-.77.14-.91"/>
    <path class="cls-3" d="m95.78,12.03c-.46-1.37-1.5-1.73-2.41-.82q-1.05,1.05.14,2.14c.86.82,1,.82,1.73.14.46-.45.68-1.09.55-1.46"/>
    <path class="cls-3" d="m89.77,179.84l-.18,1.59c-.15,1.11-.27,1.79-.4,2.24h0c-.11.38-.23.6-.37.76-.06.05-.1.11-.11.21h0c-.05.19-.02.45.07.66.09.36,0,1-.27,1.46-.5.87-.64.55-.5-1.09.07-.93-1.02-1.72-2.52-1.97-.26-.04-.54-.07-.82-.08-.07,0-.14,0-.21,0-1.14-.05-1.14-.55-.09-3.37.64-1.64,1.14-1.05.55.68-.59,1.64-.05,2.23,2.19,2.41,1.37.14,1.55,0,2.1-1.68l.59-1.82Z"/>
    <path class="cls-3" d="m96.19,181.98c0,.18-.34.28-.93.28-.29,0-.65-.04-1.07-.1-.38-.06-.7-.1-.96-.12-.91-.08-1.22.1-1.54.62q-.46.73-.5-.18c0-.13.01-.27.04-.4h0c.04-.23.11-.44.2-.6.07-.13.14-.22.22-.27.68-.41,4.55.27,4.55.77"/>
    <path class="cls-3" d="m95.28,188.77c0,.23-.14.36-.32.36-.23-.05-.87-.18-1.5-.27-.55-.08-1.4-.32-2.03-.54-.1-.04-.2-.07-.29-.1-.15-.06-.28-.12-.4-.18-.72-.35-.74-.66-.47-1.92.55-2.32.96-2.55,3.01-1.5l1.78.91-1.68-.27c-1.37-.23-1.73-.09-2.14.64-.59,1.14,0,1.73,2.37,2.14.91.18,1.69.5,1.69.73"/>
    <path class="cls-3" d="m111.04,187.04c-.77.55-1,1-.87,1.87.14.64.14,1.18.04,1.18-.5,0-.82-.68-.82-1.59,0-.59-.41-1.32-.91-1.64-.4-.28-.78-1-1.04-1.76h0c-.04-.12-.07-.24-.1-.35h0c-.09-.32-.15-.62-.18-.9-.07-.54-.02-.95.2-1.03.02-.01.05-.02.08-.02.27,0,.36.45.27,1.05-.04.18-.04.36,0,.55.07.45.34.92.77,1.36.03.04.06.07.1.1,1,.91,1.18.96,2.32.36,1.5-.77,1.64-.14.14.82"/>
    <path class="cls-3" d="m112.58,184.86s-.03.02-.04.03c-.23.14-.41.05-.41-.23,0-.23-.14-.73-.27-1.14-.14-.41-.09-.73.18-.73.2,0,.47.32.63.74.02.05.04.11.06.17.13.47.06.98-.14,1.15"/>
    <path class="cls-3" d="m139.96,179.43c-1.46-1.41-2.69-1.37-3.1.14-.18.73-.36.82-1.05.41-.8-.49-1.61-.03-2.03.72-.15.28-.26.59-.29.92-.06.51.07,1.03.45,1.45.18.23.5.96.68,1.68.55,2.32-.59,1.28-1.32-1.27-.96-3.19-.55-3.92,2.64-4.92,3.19-1,3.78-.96,4.6.23,1.18,1.64.82,2-.59.64"/>
    <path class="cls-3" d="m99.84,167.09c-.32.36-.41.68-.23.68.14,0,.12.16-.03.41-.04.07-.1.15-.15.23-.2.22-.64.39-1.17.5-1.09.22-2.52.16-2.79-.27-.14-.23-.09-.64.05-.86.18-.27.09-.77-.23-1.09-.36-.5-.18-.86.86-1.59,1.68-1.18,1.87-1.18,3.19.18.87.96.96,1.27.5,1.82"/>
    <path class="cls-3" d="m123.65,167c-.18.27-.36.87-.36,1.23,0,.82-3.64,1.19-4.1.41-.18-.27-.18-.59-.05-.73.14-.14.05-.55-.23-.91-.41-.45-.27-.86.59-1.73,1.09-1.09,1.18-1.09,2.55-.41,1.68.82,2.1,1.37,1.59,2.14"/>
    <path class="cls-3" d="m101.7,8.84c-1.32-.68-2.23-.55-3.19.41-.47.47-.71,1.04-.67,1.57,0,.09.02.17.04.25.01.06.03.11.04.17.1.46.08.79-.04.79-.11,0-.21-.12-.29-.32-.23-.56-.34-1.71-.17-2.41.06-.23.21-.44.43-.64.97-.88,3.21-1.39,4.03-.72,1,.82.87,1.5-.18.91"/>
    <path class="cls-3" d="m107.49,13.16s0,0-.01,0c-.25-.21-.48-.38-.69-.52-1.2-.8-1.73-.5-1.58.9.09.68-.05,1.23-.32,1.23s-.5-.91-.5-2.19c0-2,.14-2.28,1.91-3.64,1.05-.82,2.19-1.46,2.6-1.46.36,0-.18.64-1.23,1.46l-1.91,1.46,1.39,1.43.52.53c.13.13.25.26.36.38,1.71,1.82,1.5,2.15-.55.44"/>
    <path class="cls-3" d="m88.04,12.39c.36.91.59,1.05,1.87.77,1.25-.29,1.46-.1.69.39-.21.14-.51.3-.87.47-.07.04-.13.08-.2.12-.5.32-.85.79-.85,1.15,0,1.73-.59,1.09-1.27-1.46-.46-1.5-.78-2.91-.78-3.14,0-.27.87-.68,1.96-.96,1.05-.27,2.28-.59,2.73-.73.41-.14.77-.05.77.18,0,.27-.82.59-1.78.77-2.23.36-2.82,1-2.28,2.41"/>
    <path class="cls-3" d="m131.04,11.91c-.26-.19-.62-.49-1.05-.89-.04-.04-.09-.07-.13-.11-.79-.69-1.32-1.31-1.19-1.44.36-.37,1.46.32,2.28,1.46.92,1.23.9,1.56.1.98"/>
    <path class="cls-3" d="m130.85,13.57c-.17.21-.38.36-.64.46-.12.06-.25.1-.41.12-.38.08-.86.1-1.46.05-1.55-.09-1.96.05-2.32.91-.23.55-.59,1-.78,1-.23,0-.36-.04-.36-.09.32-1.87,2.23-7.15,2.46-6.79.18.32.14.82-.18,1.18-.27.36-.46,1.18-.36,1.91.09,1,.41,1.32,1.37,1.41.68.09,1.68-.09,2.28-.41.96-.5,1-.5.41.23"/>
    <path class="cls-3" d="m123.7,14.21c-.52.77-1.99,1.19-3.16.99-.24-.04-.46-.11-.67-.21-.1-.04-.19-.1-.27-.15-.86-.55-1.18-2.37-.86-4.92.41-3.42,1.18-3.14.82.27-.23,2.28-.14,2.92.55,3.64.37.4.94.75,1.39.87.11.03.21.04.3.04.61,0,1.25-.84,1.68-2,.31-.82.5-1.82.5-2.78,0-.87.23-1.59.5-1.59.68,0,.09,4.46-.77,5.83"/>
    <path class="cls-3" d="m99.38,30.93c-.09.11-.17.24-.23.41-.15.41-.19.96-.09,1.42,0,.02,0,.04,0,.06.17,1.04.06,1.12-1.06.85-.73-.14-1.41-.04-1.59.18-.25.46-.69.57-.91.41-.13-.09-.19-.28-.09-.55.04-.11.05-.22.03-.36-.04-.33-.25-.73-.58-1.06-.65-.54-.76-.71-.12-1.41.17-.19.39-.41.67-.69.19-.19.36-.36.51-.49.77-.71,1-.69,1.27-.2.23.41.96.73,1.59.73.96,0,1.09.09.59.68"/>
    <path class="cls-1" d="m49.36,63.49h0c-.41,0-.74-.33-.74-.74s.33-.74.74-.74h3.98c.41,0,.74.33.74.74v7.18c0,.41-.33.74-.74.74h-2.51c-.41,0-.74-.33-.74-.74v-5.7c0-.41-.33-.74-.74-.74"/>
    <path class="cls-1" d="m47.15,59.1v3.65c0,.41.33.74.74.74s.74.33.74.74-.33.74-.74.74-.74.33-.74.74v4.23c0,.41-.33.74-.74.74h-2.5c-.41,0-.74-.33-.74-.74v-10.83c0-.41-.33-.74-.74-.74h-3.11c-.41,0-.74.33-.74.74v50.9c0,.41-.33.74-.74.74h-2.51c-.41,0-.74-.33-.74-.74v-50.9c0-.41-.33-.74-.74-.74h-1.61c-.41,0-.74-.33-.74-.74v-.28c0-.41.33-.74.74-.74h10.17c.41,0,.74-.33.74-.74v-2.22c0-.41.33-.74.74-.74h2.5c.41,0,.74.33.74.74v2.22c0,.41.33.74.74.74h17.95c.41,0,.74.33.74.74v.28c0,.41-.33.74-.74.74h-17.95c-.41,0-.74.33-.74.74"/>
    <path class="cls-1" d="m61.12,67.82h0c0,.41.33.74.74.74h.35c.41,0,.74.33.74.74v.64c0,.41-.33.74-.74.74h-5.81c-.41,0-.74-.33-.74-.74v-7.18c0-.41.33-.74.74-.74h9.44c.41,0,.74.33.74.74v3.59c0,.41-.33.74-.74.74h-3.98c-.41,0-.74-.33-.74-.74s.33-.74.74-.74.74-.33.74-.74v-.64c0-.41-.33-.74-.74-.74h-1.48c-.41,0-.74.33-.74.74v2.11c0,.41.33.74.74.74s.74.33.74.74"/>
    <path class="cls-1" d="m102.64,72.13l-70.67,23.48c-1.66.55-1.29,2.99.45,3.03l66.29,1.68c.91.02,1.61.82,1.51,1.73l-.65,5.81c-.06.55-.41,1.02-.91,1.25l-3.48,1.57L4.53,151.54h0l-2.65.54c-1.79.37-2.64-2.11-1.01-2.92l75.24-37.55c1.4-.7,1.02-2.78-.54-2.94l-63.31-6.51-.48-.05c-1.6-.16-1.93-2.34-.46-2.98l2.21-.96,89.09-38.73c1.1-.48,2.3.41,2.17,1.6l-1.09,9.79c-.07.6-.48,1.11-1.06,1.31"/>
    <path class="cls-1" d="m173.41,77.89l33.15,27.73c1.18.99.37,2.9-1.16,2.75l-11.1-1.14c-.36-.04-.7-.2-.95-.45l-26.79-27.13c-.46-.46-1.15-.59-1.75-.33l-25.85,11.65c-1.1.5-2.32-.39-2.19-1.59l.85-7.67c.06-.53.38-.99.85-1.22l17.45-8.71c.95-.47,1.16-1.73.41-2.49l-8.17-8.27c-.97-.98-.27-2.65,1.11-2.65h.22c.37,0,.72.13,1,.36l11.79,9.87h0l20.17-10.06c.22-.11.45-.16.69-.16h20.88c1.68,0,2.17,2.29.64,2.98l-30.92,13.93c-1.05.47-1.24,1.88-.36,2.61"/>
    <path class="cls-1" d="m130.99,58.36c1.02,0,1.76.96,1.51,1.94l-6.75,26.53-2.89,11.38h0l-7.55,29.72c-.15.58-.61,1.02-1.2,1.14l-10.15,2.08c-1.19.24-2.18-.9-1.78-2.04l9.02-25.64,4-11.37,11.51-32.7c.22-.62.81-1.04,1.47-1.04h2.81Z"/>
    <rect class="cls-2" x="0" y="0" width="208.34" height="197.82"/>
  </g>
</svg>